<?xml version="1.0" encoding="UTF-8"?>
<svg id="Layer_1" data-name="Layer 1" xmlns="http://www.w3.org/2000/svg" viewBox="0 0 15.62 15.57">
  <defs>
    <style>
      .cls-1 {
        fill: #23b5c0;
      }
    </style>
  </defs>
  <path class="cls-1" d="M9.05,11.44c-.42.42-.83.83-1.24,1.24-.58-.58-1.15-1.15-1.73-1.73.13-.14.28-.29.43-.44.04.04.07.08.11.12.37.36.74.72,1.1,1.09.07.07.08.07.15,0,.51-.51,1.01-1.01,1.52-1.52.2-.2.41-.41.61-.61.03-.03.05-.06.08-.09.06-.06.12-.11.19-.18-.02-.02-.03-.05-.06-.07-.29-.29-.58-.58-.86-.86-.04-.04-.07-.08-.11-.12-.04-.05-.09-.05-.13,0-.38.38-.76.75-1.14,1.13-.08.08-.15.17-.23.25-.66-.58-1.24-1.24-1.88-1.85.04-.04.07-.06.1-.09.37-.36.73-.73,1.1-1.1.07-.07.14-.14.21-.21.03-.03.03-.06,0-.09-.33-.33-.65-.65-.98-.98-.06-.06-.06-.06-.13,0-.13.13-.27.27-.4.4-.32.33-.64.66-.97.98-.31.31-.62.62-.93.93-.01.01-.02.02-.03.03-.07.08-.07.08,0,.16.09.09.17.17.26.26.07.07.13.14.19.2.03.04.07.07.11.11-.14.15-.29.3-.43.45-.37-.37-.74-.73-1.09-1.1,1.13-1.12,2.25-2.24,3.38-3.37.01,0,.04.03.06.05.09.09.18.18.28.27.08.08.16.16.24.24.06.06.08.05.13-.01.04-.05.09-.09.13-.13.16-.15.31-.3.47-.46.18-.18.36-.36.54-.54.02-.02.04-.04.07-.07.14.15.29.3.43.45-.02.02-.03.04-.05.06-.12.12-.23.24-.35.36-.06.06-.13.12-.2.19-.06.06-.12.13-.18.19-.13.13-.27.27-.4.4,0,0-.01.01-.02.02-.04.04-.04.08,0,.12.09.09.18.17.27.26.06.06.11.12.17.18.04.04.08.09.12.13.08.08.15.17.24.25-.03.03-.05.05-.07.07-.31.31-.63.63-.94.94-.11.11-.22.22-.32.33-.02.02-.04.03-.06.05-.04.03-.04.05,0,.09.11.11.21.22.32.33.15.16.31.31.46.46.05.05.05.05.1,0,.36-.35.72-.71,1.08-1.06.1-.1.21-.2.31-.29.01-.01.03-.02.04-.03.69.69,1.37,1.38,2.06,2.07-.03.03-.04.05-.06.06-.52.52-1.03,1.03-1.55,1.55-.01.01-.03.03-.04.04-.02.03-.02.05,0,.08.13.13.26.26.4.39.16.16.33.32.49.48.01.01.03.03.04.05.04.03.08.03.11,0,.23-.22.46-.45.69-.68.95-.95,1.89-1.89,2.84-2.84.19-.19.37-.38.55-.57.06-.07.06-.08,0-.15-.32-.32-.64-.63-.95-.95-.05-.05-.1-.12-.16-.17-.49-.49-.98-.97-1.48-1.46-.15-.15-.3-.3-.45-.45-.02-.02-.04-.05-.07-.08-.04-.04-.05-.05-.09-.01-.02.01-.03.03-.04.04-.25.25-.5.5-.74.74-.05.05-.1.1-.15.15-.03.03-.03.05,0,.08.02.02.03.03.05.05.6.6,1.2,1.2,1.79,1.79.06.06.11.12.16.18.03.03.07.06.11.09-.01.06-.06.09-.1.13-.06.06-.13.12-.19.17-.05.05-.1.1-.16.16-.02-.02-.04-.04-.06-.06-.32-.32-.64-.64-.96-.96-.14-.14-.27-.27-.41-.41-.06-.06-.12-.12-.19-.19-.24-.24-.49-.48-.73-.72-.09-.09-.18-.19-.27-.3.63-.63,1.27-1.27,1.91-1.91.69.68,1.38,1.36,2.06,2.05.69.69,1.4,1.36,2.07,2.08,0,.01-.02.03-.04.04-.58.58-1.16,1.16-1.75,1.74-.1.1-.21.19-.31.3-.15.15-.3.31-.45.47-.14.14-.29.28-.43.41-.09.09-.18.19-.27.29-.12.12-.24.23-.36.35-.03.03-.06.07-.09.1-1.09,1.09-2.17,2.17-3.26,3.26-.16.16-.32.31-.48.47-.09.09-.18.18-.27.27-.08.08-.12.08-.2,0-.14-.14-.29-.29-.43-.43-.11-.11-.23-.22-.34-.33-.17-.16-.33-.33-.5-.5-.21-.21-.42-.42-.63-.63-.19-.19-.37-.38-.56-.57-.15-.15-.3-.3-.45-.45-.02-.02-.04-.05-.06-.08.02-.02.04-.05.06-.07.06-.06.13-.13.19-.19.06-.06.11-.11.17-.17.08.08.15.16.23.23.16.15.31.3.47.45.19.19.39.39.58.58.13.13.27.26.4.39.1.11.21.22.31.32.06.06.13.12.19.18.15.15.29.29.44.44.05.05.08.04.12,0,.08-.09.17-.17.25-.25.04-.04.08-.08.12-.12.45-.45.89-.9,1.34-1.35.11-.11.22-.23.33-.34.02-.02.05-.05.08-.07.07-.06.08-.09.01-.16-.27-.27-.54-.54-.8-.8-.05-.05-.09-.1-.14-.15"/>
  <path class="cls-1" d="M4.09,9.52c.15.14.3.28.45.42-.06.1-.14.18-.22.25-.07.07-.14.12-.2.19-.11.11-.22.22-.33.32-.13.13-.27.25-.41.38-.02.02-.04.04-.06.07-.56-.56-1.12-1.1-1.67-1.66-.55-.56-1.12-1.09-1.65-1.67.04-.04.07-.08.1-.12,1.14-1.14,2.28-2.28,3.42-3.42C4.9,2.9,6.28,1.53,7.66.15c.05-.05.09-.1.13-.15.05.04.09.08.13.12.11.1.22.21.32.31.23.23.45.46.68.69.1.1.2.19.3.29.1.09.19.19.29.28.14.15.29.29.43.44.12.12.23.24.34.36-.15.15-.29.29-.44.44-.01-.01-.03-.03-.05-.05-.45-.45-.9-.9-1.35-1.35-.15-.15-.3-.3-.44-.44-.05-.05-.09-.09-.13-.14-.05-.05-.08-.05-.13,0-.05.06-.11.11-.16.16-.16.16-.33.33-.5.49-.12.12-.25.25-.38.37-.26.26-.52.52-.78.78-.92.92-1.84,1.84-2.76,2.76-.15.16-.3.32-.46.47-.06.06-.13.12-.19.18-.05.05-.09.1-.14.14-.03.03-.07.06-.11.1-.15.15-.29.3-.44.45-.07.07-.14.13-.2.19-.1.1-.19.2-.28.29-.13.13-.26.26-.38.39-.02.02-.04.04-.05.07-.02.03-.01.05.01.07.78.77,1.55,1.55,2.32,2.32,0,0,0,0,.01.01.06.06.07.06.13,0,.07-.07.15-.15.22-.22.1-.1.2-.19.3-.29.06-.06.11-.11.17-.18"/>
</svg>