<?xml version="1.0" encoding="UTF-8"?>
<svg id="Layer_1" data-name="Layer 1" xmlns="http://www.w3.org/2000/svg" viewBox="0 0 31.52 31.43">
  <defs>
    <style>
      .cls-1 {
        fill: #23b5c0;
      }
    </style>
  </defs>
  <path class="cls-1" d="M18.27,23.1c-.85.85-1.68,1.68-2.5,2.49-1.17-1.17-2.32-2.32-3.49-3.48.27-.28.56-.58.86-.89.08.09.15.17.22.24.74.73,1.48,1.46,2.23,2.19.14.14.16.14.3,0,1.02-1.02,2.04-2.04,3.07-3.07.41-.41.82-.82,1.23-1.23.06-.06.1-.13.16-.19.12-.12.24-.23.38-.36-.03-.04-.07-.09-.11-.14-.58-.58-1.16-1.16-1.74-1.75-.08-.08-.15-.16-.22-.25-.09-.1-.18-.11-.27-.02-.77.76-1.54,1.52-2.31,2.28-.16.16-.31.33-.47.51-1.34-1.18-2.51-2.5-3.8-3.73.08-.07.14-.13.2-.19.74-.74,1.47-1.47,2.21-2.21.14-.14.29-.29.43-.43.06-.06.06-.13,0-.19-.66-.66-1.32-1.32-1.98-1.97-.12-.12-.13-.12-.26.01-.27.27-.54.54-.81.81-.65.66-1.3,1.32-1.95,1.98-.62.63-1.25,1.25-1.88,1.88-.02.02-.04.04-.07.07-.15.15-.15.17,0,.32.17.17.35.35.52.52.13.13.25.28.38.41.07.07.14.14.23.22-.29.3-.58.61-.87.92-.75-.75-1.5-1.46-2.21-2.22,2.28-2.27,4.54-4.52,6.82-6.79.02.02.08.05.13.1.19.18.37.37.56.55.16.16.32.32.49.48.12.12.17.11.27-.02.08-.1.18-.17.26-.26.31-.31.63-.62.94-.92.36-.36.73-.73,1.09-1.09.04-.04.08-.08.14-.13.29.3.58.6.87.9-.04.05-.07.08-.1.11-.23.25-.47.49-.71.73-.13.13-.27.25-.39.37-.12.12-.24.26-.36.38-.27.27-.54.54-.8.81-.01.01-.03.03-.04.04-.07.08-.08.16,0,.23.18.18.36.34.54.52.12.12.23.24.35.36.08.09.17.17.25.26.16.17.31.34.48.51-.05.05-.09.1-.14.14-.63.63-1.27,1.27-1.9,1.9-.22.22-.43.45-.65.67-.04.04-.08.07-.12.1-.07.07-.08.11,0,.18.21.22.42.45.64.67.31.31.62.62.93.93.1.1.11.11.21,0,.73-.71,1.46-1.43,2.19-2.14.21-.2.42-.39.62-.59.02-.02.05-.03.09-.05,1.38,1.39,2.77,2.78,4.16,4.18-.05.06-.08.09-.12.13-1.04,1.04-2.08,2.08-3.12,3.12-.03.03-.06.06-.09.09-.05.06-.05.1.01.16.27.26.53.53.8.8.33.32.66.64.99.96.03.03.05.07.08.09.07.07.16.07.22,0,.46-.45.93-.91,1.39-1.36,1.91-1.91,3.82-3.82,5.73-5.73.37-.38.74-.76,1.11-1.14.13-.13.12-.16-.01-.29-.64-.64-1.28-1.28-1.92-1.92-.11-.11-.21-.24-.32-.35-.99-.98-1.99-1.97-2.98-2.95-.3-.3-.6-.6-.9-.9-.05-.05-.09-.1-.13-.15-.07-.09-.11-.09-.19-.02-.03.03-.06.06-.09.09-.5.5-1,1-1.5,1.5-.1.1-.2.2-.3.3-.06.05-.06.11,0,.16.03.03.07.07.1.1,1.21,1.21,2.42,2.41,3.62,3.62.11.11.22.24.33.36.07.07.15.13.22.19-.03.13-.12.18-.19.25-.12.12-.25.23-.38.35-.1.1-.2.21-.31.32-.04-.04-.08-.07-.12-.11-.64-.64-1.29-1.29-1.93-1.93-.27-.27-.54-.54-.82-.82-.13-.13-.25-.25-.38-.37-.49-.48-.99-.96-1.48-1.45-.19-.19-.36-.39-.55-.6,1.28-1.28,2.56-2.56,3.85-3.85,1.39,1.37,2.78,2.75,4.16,4.14,1.38,1.4,2.82,2.75,4.17,4.2-.02.02-.05.06-.08.09-1.17,1.17-2.35,2.35-3.52,3.52-.2.2-.42.39-.62.6-.31.31-.61.63-.92.94-.28.28-.58.56-.86.84-.19.19-.36.39-.55.58-.24.24-.49.47-.73.71-.06.06-.11.14-.18.2-2.19,2.19-4.38,4.38-6.58,6.58-.32.32-.65.63-.97.94-.19.18-.37.37-.55.55-.16.15-.25.15-.41,0-.29-.29-.58-.59-.88-.88-.23-.22-.46-.44-.69-.66-.34-.33-.67-.67-1.01-1-.42-.42-.85-.85-1.27-1.27-.38-.38-.76-.77-1.14-1.15-.3-.3-.61-.6-.91-.91-.04-.04-.08-.1-.13-.17.04-.05.08-.1.12-.15.13-.13.26-.26.39-.38.11-.11.23-.23.34-.34.16.16.31.32.47.47.31.31.63.61.95.92.39.39.78.79,1.17,1.18.27.27.54.52.8.79.21.21.41.44.63.65.12.12.25.23.37.35.3.29.59.59.88.88.09.09.16.09.25,0,.17-.17.34-.34.51-.51.08-.08.16-.17.24-.25.9-.91,1.8-1.81,2.7-2.72.22-.23.44-.46.66-.69.05-.05.1-.09.15-.13.15-.11.15-.19.02-.32-.54-.54-1.08-1.08-1.62-1.62-.09-.1-.18-.2-.29-.31"/>
  <path class="cls-1" d="M8.26,19.21c.31.29.6.57.91.85-.12.21-.29.35-.45.51-.13.13-.28.25-.41.38-.22.22-.43.44-.66.65-.27.26-.55.51-.82.77-.04.04-.07.08-.12.13-1.13-1.12-2.27-2.22-3.38-3.36-1.1-1.13-2.26-2.2-3.34-3.37.07-.09.13-.16.2-.23,2.3-2.3,4.61-4.61,6.91-6.91C9.89,5.86,12.67,3.08,15.45.3c.09-.09.17-.19.27-.3.1.08.18.16.27.23.22.21.44.42.65.63.46.46.91.93,1.37,1.39.2.2.41.39.61.58.19.19.39.38.58.57.29.3.59.59.88.89.23.24.46.49.68.73-.3.3-.58.59-.88.89-.03-.02-.07-.06-.11-.1-.91-.91-1.82-1.82-2.73-2.73-.3-.3-.6-.6-.9-.9-.09-.09-.18-.19-.26-.29-.1-.11-.16-.11-.25,0-.1.12-.22.22-.33.33-.33.33-.67.66-1,1-.25.25-.51.5-.76.75-.52.52-1.04,1.04-1.57,1.57-1.86,1.86-3.72,3.72-5.58,5.58-.31.31-.61.64-.92.95-.12.13-.26.24-.39.36-.1.09-.18.2-.28.29-.07.07-.15.13-.22.2-.29.3-.58.61-.88.91-.13.13-.27.25-.41.39-.19.19-.38.4-.57.59-.26.26-.52.52-.77.78-.04.04-.08.09-.11.13-.03.05-.02.1.03.15,1.57,1.56,3.13,3.12,4.69,4.68,0,0,.01.01.02.02.12.12.15.12.27,0,.15-.15.29-.3.44-.44.2-.2.41-.39.61-.58.12-.11.23-.23.35-.35"/>
</svg>