<?xml version="1.0" encoding="UTF-8"?>
<svg id="Layer_1" data-name="Layer 1" xmlns="http://www.w3.org/2000/svg" viewBox="0 0 47.07 46.94">
  <defs>
    <style>
      .cls-1 {
        fill: #23b5c0;
      }
    </style>
  </defs>
  <path class="cls-1" d="M27.28,34.5c-1.28,1.27-2.51,2.51-3.73,3.72-1.74-1.74-3.46-3.46-5.21-5.2.4-.42.84-.87,1.29-1.33.12.13.22.25.33.36,1.11,1.09,2.22,2.18,3.32,3.28.21.21.24.21.45-.01,1.53-1.53,3.05-3.05,4.58-4.58.61-.61,1.23-1.23,1.84-1.84.09-.09.16-.19.24-.28.18-.18.36-.34.56-.54-.05-.06-.1-.14-.17-.21-.87-.87-1.74-1.74-2.6-2.61-.12-.12-.22-.24-.33-.37-.13-.15-.27-.16-.4-.03-1.15,1.14-2.3,2.27-3.45,3.41-.24.24-.47.5-.71.76-2-1.76-3.75-3.73-5.67-5.57.11-.11.21-.19.3-.28,1.1-1.1,2.2-2.2,3.3-3.3.21-.21.43-.43.64-.65.09-.09.08-.19-.01-.28-.99-.98-1.97-1.97-2.96-2.95-.18-.18-.19-.18-.39.02-.4.4-.81.8-1.21,1.21-.97.98-1.94,1.97-2.91,2.96-.93.94-1.87,1.87-2.8,2.8-.03.03-.07.07-.1.1-.22.23-.22.25,0,.47.26.26.52.52.78.78.2.2.38.41.57.62.1.11.21.2.34.32-.43.45-.86.9-1.3,1.37-1.12-1.11-2.25-2.19-3.3-3.31,3.4-3.39,6.78-6.75,10.19-10.14.04.03.12.08.19.15.28.27.55.55.83.83.24.24.48.48.73.72.18.18.25.16.4-.03.11-.14.26-.26.39-.38.47-.46.94-.92,1.4-1.38.54-.54,1.08-1.08,1.63-1.63.06-.06.12-.12.21-.2.44.45.86.89,1.29,1.34-.06.07-.1.12-.14.17-.35.37-.7.74-1.05,1.1-.19.19-.4.37-.59.56-.19.19-.36.39-.54.57-.4.4-.8.8-1.2,1.21-.02.02-.04.04-.07.07-.11.13-.11.23,0,.35.27.26.54.51.81.78.18.17.35.36.52.54.12.13.25.26.37.39.23.25.47.5.71.77-.08.08-.14.15-.2.22-.95.95-1.89,1.89-2.84,2.84-.33.33-.65.67-.98,1.01-.05.06-.12.1-.18.15-.11.1-.12.16,0,.27.32.33.63.67.96.99.46.47.93.93,1.39,1.39.16.15.16.16.31.01,1.09-1.06,2.18-2.13,3.27-3.2.31-.3.62-.59.93-.88.03-.03.08-.05.13-.08,2.07,2.08,4.13,4.16,6.21,6.25-.08.08-.12.14-.18.19-1.55,1.55-3.11,3.11-4.66,4.66-.04.04-.09.09-.13.13-.07.08-.07.15.02.24.4.39.8.79,1.2,1.19.49.48.98.96,1.47,1.44.04.04.08.1.12.14.11.1.24.1.33.01.69-.68,1.39-1.35,2.07-2.04,2.86-2.85,5.71-5.71,8.56-8.56.56-.56,1.11-1.14,1.66-1.71.19-.2.18-.23-.02-.44-.96-.96-1.91-1.91-2.87-2.87-.17-.17-.31-.35-.47-.52-1.48-1.47-2.97-2.94-4.45-4.41-.45-.45-.9-.89-1.34-1.34-.07-.07-.13-.15-.2-.23-.11-.13-.16-.14-.29-.03-.05.04-.09.09-.13.13-.75.75-1.49,1.49-2.24,2.24-.15.15-.29.3-.44.45-.08.08-.09.16,0,.24.05.05.1.1.15.15,1.8,1.8,3.61,3.6,5.41,5.41.17.17.32.36.49.53.1.1.22.19.33.28-.04.19-.18.27-.29.38-.18.18-.38.35-.56.53-.15.15-.3.31-.47.48-.06-.06-.12-.11-.18-.17-.96-.96-1.92-1.92-2.89-2.88-.41-.41-.81-.81-1.22-1.22-.19-.19-.37-.38-.56-.56-.74-.72-1.48-1.44-2.21-2.17-.28-.28-.54-.58-.83-.89,1.91-1.91,3.82-3.82,5.75-5.76,2.08,2.04,4.15,4.11,6.21,6.19,2.07,2.09,4.21,4.11,6.23,6.27-.03.03-.07.08-.12.13-1.75,1.75-3.5,3.51-5.26,5.26-.3.3-.63.59-.93.89-.46.47-.91.95-1.37,1.41-.42.42-.87.83-1.29,1.25-.28.28-.54.58-.82.86-.36.36-.73.7-1.09,1.06-.09.09-.17.2-.26.3-3.27,3.27-6.55,6.55-9.82,9.82-.48.47-.96.93-1.45,1.4-.28.27-.55.55-.83.82-.23.23-.37.23-.61,0-.44-.44-.87-.88-1.31-1.31-.34-.33-.69-.65-1.03-.99-.5-.5-1-1-1.5-1.5-.63-.63-1.27-1.27-1.9-1.9-.57-.57-1.13-1.15-1.7-1.72-.45-.45-.91-.9-1.36-1.35-.07-.07-.12-.15-.19-.25.06-.07.11-.15.18-.22.19-.19.39-.38.58-.57.17-.17.34-.34.51-.51.24.24.47.48.7.7.47.46.95.91,1.41,1.37.59.58,1.16,1.18,1.74,1.76.4.4.8.78,1.2,1.18.32.32.62.65.93.98.18.18.38.35.56.53.44.44.88.88,1.32,1.32.14.14.24.13.37,0,.25-.26.51-.5.76-.76.12-.12.23-.25.35-.37,1.35-1.35,2.69-2.7,4.04-4.06.33-.34.66-.69.99-1.03.07-.07.15-.14.23-.2.22-.17.23-.28.03-.48-.81-.81-1.62-1.61-2.42-2.42-.14-.14-.27-.29-.43-.46"/>
  <path class="cls-1" d="M12.34,28.69c.46.43.9.85,1.36,1.28-.18.31-.44.53-.67.76-.2.2-.41.38-.61.57-.33.32-.65.66-.98.98-.4.39-.82.77-1.23,1.15-.06.06-.11.13-.17.2-1.69-1.67-3.39-3.32-5.04-5.01-1.65-1.68-3.38-3.28-4.98-5.04.11-.13.2-.25.3-.35,3.44-3.44,6.88-6.88,10.32-10.32C14.77,8.75,18.93,4.6,23.08.45c.14-.14.26-.29.4-.45.14.13.28.23.4.35.33.31.66.62.98.94.69.69,1.36,1.39,2.05,2.08.3.3.61.58.91.87.29.28.58.57.86.86.44.44.88.89,1.31,1.33.35.36.69.74,1.02,1.08-.44.45-.87.88-1.31,1.33-.04-.03-.11-.09-.16-.14-1.36-1.36-2.72-2.72-4.08-4.08-.45-.45-.89-.89-1.34-1.34-.14-.14-.26-.29-.39-.43-.14-.16-.24-.16-.38,0-.15.17-.32.33-.49.5-.5.5-.99.99-1.49,1.49-.38.37-.76.74-1.13,1.12-.78.78-1.56,1.56-2.34,2.34-2.78,2.78-5.55,5.55-8.33,8.33-.47.47-.92.95-1.38,1.42-.19.19-.39.36-.58.54-.14.14-.27.29-.42.44-.1.1-.22.19-.33.3-.44.45-.87.91-1.31,1.35-.2.2-.41.38-.61.58-.29.29-.57.59-.86.89-.38.39-.77.77-1.15,1.16-.06.06-.11.13-.16.2-.05.08-.04.15.04.23,2.34,2.33,4.67,4.66,7.01,7,.01.01.02.02.03.03.19.18.22.18.4,0,.22-.22.44-.44.66-.66.3-.29.61-.58.91-.87.17-.17.34-.34.52-.53"/>
</svg>